<?xml version="1.0" encoding="utf-8"?>
<!-- Generator: Adobe Illustrator 22.0.0, SVG Export Plug-In . SVG Version: 6.00 Build 0)  -->
<svg version="1.1" id="Capa_1" xmlns="http://www.w3.org/2000/svg" xmlns:xlink="http://www.w3.org/1999/xlink" x="0px" y="0px"
	 viewBox="0 0 12 12" style="enable-background:new 0 0 12 12;" xml:space="preserve">
<style type="text/css">
	.st0{fill:#FFFFFF;}
</style>
<g>
	<g>
		<path class="st0" d="M11.6,5.9c-0.2,0-0.3,0.2-0.3,0.3v3.1c0,0.8-0.7,1.5-1.5,1.5H2.3c-0.8,0-1.5-0.7-1.5-1.5V6.2
			c0-0.2-0.2-0.3-0.3-0.3S0.1,6,0.1,6.2v3.1c0,1.2,1,2.2,2.2,2.2h7.5c1.2,0,2.2-1,2.2-2.2V6.2C11.9,6,11.8,5.9,11.6,5.9z"/>
		<path class="st0" d="M5.8,8.8C5.8,8.9,5.9,8.9,6,8.9s0.2,0,0.2-0.1l2.2-2.2c0.1-0.1,0.1-0.3,0-0.5C8.3,6,8.1,6,7.9,6.2L6.3,7.7
			V0.8c0-0.2-0.2-0.3-0.3-0.3c-0.2,0-0.3,0.2-0.3,0.3v6.9L4.1,6.2C3.9,6,3.7,6,3.6,6.2s-0.1,0.3,0,0.5L5.8,8.8z"/>
	</g>
</g>
</svg>
