<?xml version="1.0" encoding="utf-8"?>
<!-- Generator: Adobe Illustrator 22.0.0, SVG Export Plug-In . SVG Version: 6.00 Build 0)  -->
<svg version="1.1" id="Layer_1" xmlns="http://www.w3.org/2000/svg" xmlns:xlink="http://www.w3.org/1999/xlink" x="0px" y="0px"
	 viewBox="0 0 33 33" style="enable-background:new 0 0 33 33;" xml:space="preserve">
<style type="text/css">
	.st0{fill:#E64A77;}
</style>
<g>
	<path id="f" class="st0" d="M17.8,24.8v-7.6h2.5l0.4-3h-2.9v-1.9c0-0.9,0.2-1.4,1.5-1.4l1.6,0V8.3c-0.3,0-1.2-0.1-2.3-0.1
		c-2.3,0-3.8,1.4-3.8,3.9v2.2h-2.6v3h2.6v7.6C14.7,24.8,17.8,24.8,17.8,24.8z"/>
	<g>
		<path class="st0" d="M16.5,1C7.9,1,1,7.9,1,16.5S7.9,32,16.5,32S32,25.1,32,16.5S25.1,1,16.5,1z M16.5,31C8.5,31,2,24.5,2,16.5
			S8.5,2,16.5,2C24.5,2,31,8.5,31,16.5C31,24.5,24.5,31,16.5,31z"/>
	</g>
</g>
</svg>
