<?xml version="1.0" encoding="iso-8859-1"?>
<!-- Generator: Adobe Illustrator 22.0.0, SVG Export Plug-In . SVG Version: 6.00 Build 0)  -->
<svg version="1.1" id="Layer_1" xmlns="http://www.w3.org/2000/svg" xmlns:xlink="http://www.w3.org/1999/xlink" x="0px" y="0px"
	 viewBox="0 0 20 19" style="enable-background:new 0 0 20 19;" xml:space="preserve">
<g>
	<g>
		<path style="fill:#FFFFFF;" d="M18.664,7.344c-0.312,0-0.468,0.312-0.468,0.468v4.839c0,1.249-1.093,2.342-2.342,2.342H4.146
			c-1.249,0-2.342-1.093-2.342-2.342V7.812c0-0.312-0.312-0.468-0.468-0.468S0.712,7.5,0.712,7.812v4.839
			c0,1.873,1.561,3.434,3.434,3.434h11.708c1.873,0,3.434-1.561,3.434-3.434V7.812C19.132,7.5,18.976,7.344,18.664,7.344z"/>
		<path style="fill:#FFFFFF;" d="M10.234,3.071c0-0.156-0.156-0.156-0.312-0.156c-0.156,0-0.312,0-0.312,0.156L6.176,6.505
			c-0.156,0.156-0.156,0.468,0,0.781c0.156,0.156,0.468,0.156,0.781-0.156l2.498-2.342v10.771c0,0.312,0.312,0.468,0.468,0.468
			c0.312,0,0.468-0.312,0.468-0.468V4.788l2.498,2.342c0.312,0.312,0.624,0.312,0.781,0c0.156-0.312,0.156-0.468,0-0.781
			L10.234,3.071z"/>
	</g>
</g>
</svg>
