<?xml version="1.0" encoding="utf-8"?>
<!-- Generator: Adobe Illustrator 25.0.0, SVG Export Plug-In . SVG Version: 6.00 Build 0)  -->
<svg version="1.1" id="Capa_1" xmlns="http://www.w3.org/2000/svg" xmlns:xlink="http://www.w3.org/1999/xlink" x="0px" y="0px"
	 viewBox="0 0 471.2 471.2" style="enable-background:new 0 0 471.2 471.2;" xml:space="preserve">
<style type="text/css">
	.st0{fill:url(#SVGID_1_);}
	.st1{fill:url(#SVGID_2_);}
</style>
<g>
	<g>
		<linearGradient id="SVGID_1_" gradientUnits="userSpaceOnUse" x1="0" y1="341.05" x2="471.2" y2="341.05">
			<stop  offset="0" style="stop-color:#BD0000"/>
			<stop  offset="1" style="stop-color:#C50086"/>
		</linearGradient>
		<path class="st0" d="M457.7,230.2c-7.5,0-13.5,6-13.5,13.5v122.8c0,33.4-27.2,60.5-60.5,60.5H87.5C54.1,427,27,399.8,27,366.5
			V241.7c0-7.5-6-13.5-13.5-13.5S0,234.2,0,241.7v124.8C0,414.8,39.3,454,87.5,454h296.2c48.3,0,87.5-39.3,87.5-87.5V243.7
			C471.2,236.3,465.2,230.2,457.7,230.2z"/>
		<linearGradient id="SVGID_2_" gradientUnits="userSpaceOnUse" x1="136.225" y1="184" x2="334.875" y2="184">
			<stop  offset="0" style="stop-color:#BD0000"/>
			<stop  offset="1" style="stop-color:#C50086"/>
		</linearGradient>
		<path class="st1" d="M226.1,346.8c2.6,2.6,6.1,4,9.5,4s6.9-1.3,9.5-4l85.8-85.8c5.3-5.3,5.3-13.8,0-19.1s-13.8-5.3-19.1,0
			l-62.7,62.8V30.8c0-7.5-6-13.5-13.5-13.5s-13.5,6-13.5,13.5v273.9l-62.8-62.8c-5.3-5.3-13.8-5.3-19.1,0s-5.3,13.8,0,19.1
			L226.1,346.8z"/>
	</g>
</g>
</svg>
